# xmcd CD database file
#
# Track frame offsets:
#	150
#	11852
#	21066
#	30123
#	41578
#	52945
#	61387
#	72926
#	87435
#	95920
#	109520
#	122105
#	138718
#	151915
#	163127
#	175663
#	186199
#	197474
#	211637
#	220116
#	231636
#	242960
#	253559
#	264105
#	276875
#	287294
#	301202
#	311971
#	321645
#	331870
#	342171
#
# Disc length: 4695 seconds
#
# Revision: 2
# Processed by: cddbd v1.4b42PL1 Copyright (c) Steve Scherf et al.
# Submitted via: CDex 1.40Beta8
#
DISCID=be12551f
DTITLE=Marty Robbins - Marty Robbins-Country 1951 - 1958, Vol. 4
DYEAR=1900
DGENRE=Country
TTITLE0=You Only Want Me When You're Lonely - 1957
TTITLE1=Crying Steel Guitar Waltz - 1957
TTITLE2=Beautiful Ohio - 1984
TTITLE3=Now Is The Hour (Maori Farewell Song) - 1957
TTITLE4=Down Where The Tradewinds Blow - 1957
TTITLE5=Sweet Leilani - 1957
TTITLE6=Beyond The Reef - 1957
TTITLE7=Constancy (Ua Like No More) - 1957
TTITLE8=Don't Sing Aloha When I Go - 1957
TTITLE9=Song Of The Islands - 1957
TTITLE10=Moonland - 1957
TTITLE11=Island Echos - 1957
TTITLE12=My Isle Of Golden Dreams - 1957
TTITLE13=Aloha Oe (Farewell To Thee) - 1957
TTITLE14=A Faded Petal From A Beautiful Bouquet - 1984
TTITLE15=Then I Turned And Walked Slowly Away - 1958
TTITLE16=Jodie (Judy) - 1958
TTITLE17=A House With Everything But Love - 1958
TTITLE18=Nothing But Sweet Lies - 1958
TTITLE19=Baby I Need You (Like You Need Me) - 1958
TTITLE20=Kaw-Liga - 1958
TTITLE21=Paper-Face - 1958
TTITLE22=Many Tears Ago - 1984
TTITLE23=Address Unknown - 1984
TTITLE24=Waltz Of The Wind - 1958
TTITLE25=The Hands You're Holding Now - 1958
TTITLE26=Shackles And Chains - 1958
TTITLE27=Oh, How I Miss You (Since You Went Away) - 1958
TTITLE28=Footprints In The Snow - 1982
TTITLE29=Wedding Bells - 1958
TTITLE30=It's Driving Me Crazy - 1983
EXTD=Bear Family Records BCD 15570 EH\n5 CD Boxed set with book/discography\n1991  recorded Nov 1951 - Oct 1958\nTitles include release year. ID3G: 2
EXTT0=
EXTT1=
EXTT2=
EXTT3=
EXTT4=
EXTT5=
EXTT6=
EXTT7=
EXTT8=
EXTT9=
EXTT10=
EXTT11=
EXTT12=
EXTT13=
EXTT14=
EXTT15=
EXTT16=
EXTT17=
EXTT18=
EXTT19=
EXTT20=
EXTT21=
EXTT22=
EXTT23=
EXTT24=
EXTT25=
EXTT26=
EXTT27=
EXTT28=
EXTT29=
EXTT30=
PLAYORDER=
